<svg id="Laag_2" data-name="Laag 2" xmlns="http://www.w3.org/2000/svg" viewBox="0 0 500 500"><path d="M143.7,269.35c3.46,8.13,10.11,16.68,18.22,26a64.79,64.79,0,0,0-7.52-17.09,120.74,120.74,0,0,0-11.26-20.65C140.83,260.09,141.41,265.23,143.7,269.35Z"/><path d="M0,0V500H40.37q3-36.74,8.45-68.54c2.27-22.17,14.55-35.37,32.52-41.81,21.76-8.32,42.36-17,54.34-28.72a98.35,98.35,0,0,0-3.24-21.54c-1.48-9.8,3.72-14,13.52-14.36,12.56-5.27,18-13.62,16.83-24.86C148.5,289,137.19,275,132.63,257.64A66.83,66.83,0,0,1,128.88,219c2-30.85,12.53-61.65,34.91-92.36C178.53,97.14,199,81.28,225.36,79.7c8.09-2.92,17-2.53,23.65,2.62,20.55-.85,36.44,9.45,48.8,28.16,11.18,13.19,21.85,82.09,39,113.75,5.13,11.45,11.5,19.38,19.15,23.65-7.4.87-11.71.52-12.76-1.12,1.12,18.39-5,30.95-11.36,43.17l-11.17,26.28c-5.72,12.39-4.62,15.94,3.38,19.89,3.67,3.1,12.16,6.09,23.65,9-11,.77-17,.27-19.52-1.12,2,2,5.29,2.67,10.23,4.41A45.29,45.29,0,0,1,317,343.61c18.57,9.53,43.1,19.05,75.46,28.53,25.5,10.6,41.33,29.31,45.58,60.49L445.72,500H500V0Z"/></svg>